<?xml version="1.0" encoding="UTF-8" standalone="no"?>
<!DOCTYPE svg PUBLIC "-//W3C//DTD SVG 1.1//EN"
 "http://www.w3.org/Graphics/SVG/1.1/DTD/svg11.dtd">
<!-- Generated by graphviz version 2.28.0 (20110509.1545)
 -->
<!-- Title: G Pages: 1 -->
<svg width="434pt" height="490pt"
 viewBox="0.00 0.00 434.00 490.00" xmlns="http://www.w3.org/2000/svg" xmlns:xlink="http://www.w3.org/1999/xlink">
<g id="graph1" class="graph" transform="scale(1 1) rotate(0) translate(4 486)">
<title>G</title>
<polygon fill="black" stroke="black" points="-4,5 -4,-486 431,-486 431,5 -4,5"/>
<!-- Lorem -->
<g id="node1" class="node"><title>Lorem</title>
<ellipse fill="none" stroke="white" cx="220" cy="-463" rx="41.2075" ry="19.4695"/>
<text text-anchor="middle" x="220" y="-458.2" font-family="Gil Sans" font-size="16.00" fill="white">Lorem</text>
</g>
<!-- ipsum -->
<g id="node4" class="node"><title>ipsum</title>
<ellipse fill="none" stroke="white" cx="88" cy="-389" rx="38.4589" ry="19.4695"/>
<text text-anchor="middle" x="88" y="-384.2" font-family="Gil Sans" font-size="16.00" fill="white">ipsum</text>
</g>
<!-- Lorem&#45;&#45;ipsum -->
<g id="edge3" class="edge"><title>Lorem&#45;&#45;ipsum</title>
<path fill="none" stroke="white" d="M194.236,-447.947C170.827,-435.178 136.498,-416.454 113.251,-403.773"/>
</g>
<!-- dolor -->
<g id="node5" class="node"><title>dolor</title>
<ellipse fill="none" stroke="white" cx="180" cy="-389" rx="35.2926" ry="19.4695"/>
<text text-anchor="middle" x="180" y="-384.2" font-family="Gil Sans" font-size="16.00" fill="white">dolor</text>
</g>
<!-- Lorem&#45;&#45;dolor -->
<g id="edge4" class="edge"><title>Lorem&#45;&#45;dolor</title>
<path fill="none" stroke="white" d="M210.112,-444.202C203.912,-433.042 195.952,-418.714 189.774,-407.593"/>
</g>
<!-- sit -->
<g id="node6" class="node"><title>sit</title>
<ellipse fill="none" stroke="white" cx="260" cy="-389" rx="27" ry="19.4695"/>
<text text-anchor="middle" x="260" y="-384.2" font-family="Gil Sans" font-size="16.00" fill="white">sit</text>
</g>
<!-- Lorem&#45;&#45;sit -->
<g id="edge5" class="edge"><title>Lorem&#45;&#45;sit</title>
<path fill="none" stroke="white" d="M229.888,-444.202C236.18,-432.875 244.286,-418.286 250.502,-407.097"/>
</g>
<!-- amet -->
<g id="node7" class="node"><title>amet</title>
<ellipse fill="none" stroke="white" cx="338" cy="-389" rx="32.9566" ry="19.4695"/>
<text text-anchor="middle" x="338" y="-384.2" font-family="Gil Sans" font-size="16.00" fill="white">amet</text>
</g>
<!-- Lorem&#45;&#45;amet -->
<g id="edge6" class="edge"><title>Lorem&#45;&#45;amet</title>
<path fill="none" stroke="white" d="M244.164,-447.256C265.201,-434.42 295.444,-415.966 315.861,-403.508"/>
</g>
<!-- consectetur -->
<g id="node9" class="node"><title>consectetur</title>
<ellipse fill="none" stroke="white" cx="146" cy="-315" rx="62.2425" ry="19.4695"/>
<text text-anchor="middle" x="146" y="-310.2" font-family="Gil Sans" font-size="16.00" fill="white">consectetur</text>
</g>
<!-- dolor&#45;&#45;consectetur -->
<g id="edge9" class="edge"><title>dolor&#45;&#45;consectetur</title>
<path fill="none" stroke="white" d="M171.596,-370.202C166.404,-359.208 159.761,-345.141 154.544,-334.093"/>
</g>
<!-- Pellentesque -->
<g id="node14" class="node"><title>Pellentesque</title>
<ellipse fill="none" stroke="white" cx="295" cy="-315" rx="68.2415" ry="19.4695"/>
<text text-anchor="middle" x="295" y="-310.2" font-family="Gil Sans" font-size="16.00" fill="white">Pellentesque</text>
</g>
<!-- sit&#45;&#45;Pellentesque -->
<g id="edge14" class="edge"><title>sit&#45;&#45;Pellentesque</title>
<path fill="none" stroke="white" d="M268.473,-370.571C273.814,-359.584 280.699,-345.418 286.117,-334.273"/>
</g>
<!-- adipiscing -->
<g id="node11" class="node"><title>adipiscing</title>
<ellipse fill="none" stroke="white" cx="57" cy="-241" rx="57.2282" ry="19.4695"/>
<text text-anchor="middle" x="57" y="-236.2" font-family="Gil Sans" font-size="16.00" fill="white">adipiscing</text>
</g>
<!-- consectetur&#45;&#45;adipiscing -->
<g id="edge10" class="edge"><title>consectetur&#45;&#45;adipiscing</title>
<path fill="none" stroke="white" d="M124.456,-296.571C110.36,-285.167 92.032,-270.341 78.0389,-259.02"/>
</g>
<!-- elit -->
<g id="node12" class="node"><title>elit</title>
<ellipse fill="none" stroke="white" cx="160" cy="-241" rx="27" ry="19.4695"/>
<text text-anchor="middle" x="160" y="-236.2" font-family="Gil Sans" font-size="16.00" fill="white">elit</text>
</g>
<!-- consectetur&#45;&#45;elit -->
<g id="edge11" class="edge"><title>consectetur&#45;&#45;elit</title>
<path fill="none" stroke="white" d="M149.605,-295.458C151.712,-284.625 154.359,-271.009 156.455,-260.23"/>
</g>
<!-- in -->
<g id="node19" class="node"><title>in</title>
<ellipse fill="none" stroke="white" cx="160" cy="-167" rx="27" ry="19.4695"/>
<text text-anchor="middle" x="160" y="-162.2" font-family="Gil Sans" font-size="16.00" fill="white">in</text>
</g>
<!-- elit&#45;&#45;in -->
<g id="edge19" class="edge"><title>elit&#45;&#45;in</title>
<path fill="none" stroke="white" d="M160,-221.458C160,-210.792 160,-197.427 160,-186.729"/>
</g>
<!-- euismod -->
<g id="node16" class="node"><title>euismod</title>
<ellipse fill="none" stroke="white" cx="282" cy="-241" rx="49.4765" ry="19.4695"/>
<text text-anchor="middle" x="282" y="-236.2" font-family="Gil Sans" font-size="16.00" fill="white">euismod</text>
</g>
<!-- Pellentesque&#45;&#45;euismod -->
<g id="edge15" class="edge"><title>Pellentesque&#45;&#45;euismod</title>
<path fill="none" stroke="white" d="M291.652,-295.458C289.696,-284.625 287.238,-271.009 285.291,-260.23"/>
</g>
<!-- neque -->
<g id="node17" class="node"><title>neque</title>
<ellipse fill="none" stroke="white" cx="388" cy="-241" rx="37.9944" ry="19.4695"/>
<text text-anchor="middle" x="388" y="-236.2" font-family="Gil Sans" font-size="16.00" fill="white">neque</text>
</g>
<!-- Pellentesque&#45;&#45;neque -->
<g id="edge16" class="edge"><title>Pellentesque&#45;&#45;neque</title>
<path fill="none" stroke="white" d="M317.513,-296.571C332.887,-284.668 353.079,-269.035 367.91,-257.554"/>
</g>
<!-- tincidunt -->
<g id="node21" class="node"><title>tincidunt</title>
<ellipse fill="none" stroke="white" cx="160" cy="-93" rx="51.3092" ry="19.4695"/>
<text text-anchor="middle" x="160" y="-88.2" font-family="Gil Sans" font-size="16.00" fill="white">tincidunt</text>
</g>
<!-- in&#45;&#45;tincidunt -->
<g id="edge20" class="edge"><title>in&#45;&#45;tincidunt</title>
<path fill="none" stroke="white" d="M160,-147.458C160,-136.792 160,-123.427 160,-112.729"/>
</g>
<!-- mauris -->
<g id="node24" class="node"><title>mauris</title>
<ellipse fill="none" stroke="white" cx="73" cy="-19" rx="42.1561" ry="19.4695"/>
<text text-anchor="middle" x="73" y="-14.2" font-family="Gil Sans" font-size="16.00" fill="white">mauris</text>
</g>
<!-- tincidunt&#45;&#45;mauris -->
<g id="edge23" class="edge"><title>tincidunt&#45;&#45;mauris</title>
<path fill="none" stroke="white" d="M139.822,-75.3008C125.566,-63.5028 106.566,-47.7784 92.4703,-36.1134"/>
</g>
<!-- est -->
<g id="node25" class="node"><title>est</title>
<ellipse fill="none" stroke="white" cx="160" cy="-19" rx="27" ry="19.4695"/>
<text text-anchor="middle" x="160" y="-14.2" font-family="Gil Sans" font-size="16.00" fill="white">est</text>
</g>
<!-- tincidunt&#45;&#45;est -->
<g id="edge24" class="edge"><title>tincidunt&#45;&#45;est</title>
<path fill="none" stroke="white" d="M160,-73.4582C160,-62.7917 160,-49.4271 160,-38.7292"/>
</g>
<!-- laoreet -->
<g id="node26" class="node"><title>laoreet</title>
<ellipse fill="none" stroke="white" cx="247" cy="-19" rx="42.1374" ry="19.4695"/>
<text text-anchor="middle" x="247" y="-14.2" font-family="Gil Sans" font-size="16.00" fill="white">laoreet</text>
</g>
<!-- tincidunt&#45;&#45;laoreet -->
<g id="edge25" class="edge"><title>tincidunt&#45;&#45;laoreet</title>
<path fill="none" stroke="white" d="M180.178,-75.3008C194.434,-63.5028 213.434,-47.7784 227.53,-36.1134"/>
</g>
</g>
</svg>
